<mxfile host="Electron" agent="Mozilla/5.0 (Macintosh; Intel Mac OS X 10_15_7) AppleWebKit/537.36 (KHTML, like Gecko) draw.io/25.0.2 Chrome/128.0.6613.186 Electron/32.2.5 Safari/537.36" version="25.0.2">
  <diagram name="ページ1" id="VSj2wmTbl-WqB4pPmQmD">
    <mxGraphModel dx="855" dy="643" grid="1" gridSize="10" guides="1" tooltips="1" connect="1" arrows="1" fold="1" page="1" pageScale="1" pageWidth="827" pageHeight="1169" math="0" shadow="0">
      <root>
        <mxCell id="0" />
        <mxCell id="1" parent="0" />
        <mxCell id="aAubT2UVhq9OH1OdG5Ef-9" style="edgeStyle=orthogonalEdgeStyle;rounded=0;orthogonalLoop=1;jettySize=auto;html=1;exitX=0;exitY=0.75;exitDx=0;exitDy=0;exitPerimeter=0;endArrow=none;endFill=0;" edge="1" parent="1" source="aAubT2UVhq9OH1OdG5Ef-3">
          <mxGeometry relative="1" as="geometry">
            <mxPoint x="120" y="410.08333333333337" as="targetPoint" />
          </mxGeometry>
        </mxCell>
        <mxCell id="aAubT2UVhq9OH1OdG5Ef-14" value="Cin" style="edgeLabel;html=1;align=center;verticalAlign=middle;resizable=0;points=[];" vertex="1" connectable="0" parent="aAubT2UVhq9OH1OdG5Ef-9">
          <mxGeometry x="0.8527" relative="1" as="geometry">
            <mxPoint x="-13" as="offset" />
          </mxGeometry>
        </mxCell>
        <mxCell id="aAubT2UVhq9OH1OdG5Ef-20" style="edgeStyle=orthogonalEdgeStyle;shape=connector;rounded=0;orthogonalLoop=1;jettySize=auto;html=1;exitX=1;exitY=0.25;exitDx=0;exitDy=0;exitPerimeter=0;strokeColor=default;align=center;verticalAlign=middle;fontFamily=Helvetica;fontSize=11;fontColor=default;labelBackgroundColor=default;endArrow=none;endFill=0;" edge="1" parent="1" source="aAubT2UVhq9OH1OdG5Ef-3" target="aAubT2UVhq9OH1OdG5Ef-19">
          <mxGeometry relative="1" as="geometry">
            <Array as="points">
              <mxPoint x="260" y="350" />
              <mxPoint x="260" y="350" />
            </Array>
          </mxGeometry>
        </mxCell>
        <mxCell id="aAubT2UVhq9OH1OdG5Ef-48" style="edgeStyle=orthogonalEdgeStyle;shape=connector;rounded=0;orthogonalLoop=1;jettySize=auto;html=1;exitX=0;exitY=0.25;exitDx=0;exitDy=0;exitPerimeter=0;strokeColor=default;align=center;verticalAlign=middle;fontFamily=Helvetica;fontSize=11;fontColor=default;labelBackgroundColor=default;endArrow=none;endFill=0;" edge="1" parent="1" source="aAubT2UVhq9OH1OdG5Ef-3" target="aAubT2UVhq9OH1OdG5Ef-46">
          <mxGeometry relative="1" as="geometry">
            <Array as="points">
              <mxPoint x="160" y="350" />
              <mxPoint x="160" y="350" />
            </Array>
          </mxGeometry>
        </mxCell>
        <mxCell id="aAubT2UVhq9OH1OdG5Ef-50" style="edgeStyle=orthogonalEdgeStyle;shape=connector;rounded=0;orthogonalLoop=1;jettySize=auto;html=1;exitX=0;exitY=0.5;exitDx=0;exitDy=0;exitPerimeter=0;strokeColor=default;align=center;verticalAlign=middle;fontFamily=Helvetica;fontSize=11;fontColor=default;labelBackgroundColor=default;endArrow=none;endFill=0;" edge="1" parent="1" source="aAubT2UVhq9OH1OdG5Ef-3" target="aAubT2UVhq9OH1OdG5Ef-49">
          <mxGeometry relative="1" as="geometry">
            <Array as="points">
              <mxPoint x="160" y="410" />
              <mxPoint x="160" y="410" />
            </Array>
          </mxGeometry>
        </mxCell>
        <mxCell id="aAubT2UVhq9OH1OdG5Ef-3" value="" style="verticalLabelPosition=bottom;shadow=0;dashed=0;align=center;html=1;verticalAlign=top;shape=stencil(tZZNc4IwEIZ/Dcd2kPjB1VI51JPTS68BV80YEiakav99A4szRhukQWe87Lu6z5tlNxiQpNrREoIopFUJuQ7IexBFB6oYzbiRI5PZoRiHGApaACofSxOmnJUvKZclZiut5B6ObK3bnzGxA8U0Zo+ojcKmFlkE4dyo9YckuRTCOGBSVFbmIm+KUya0bQIrlwZSgAaFauv1ZEU/bfQaTVAIovQ/qIUHyo+09CDN/FCrHqjRY/q3ErD1oLkORhKjuKaGJBnN91slv8X6T4+qnvab4W4HdGo7uu51hx8HlSQbqaDDzoZxjrvT0deS1lt1kzinC3kA13y4TNsVOBPgPHa/El0mpsNN9Cthm4iHt6K9sQb1Ih7ejGsbPt2wK4yHP5LuEs1WOAbXvH3ujbyGU72mlLOtQFwOor44zm8bFOcYHy6+l0mtZWHv8cR+iHeusZ7sNx/2+DHsLx/29DHsz17s2VN6nviwXeduRvTmfm5U/HfUCL8=);" vertex="1" parent="1">
          <mxGeometry x="160" y="350" width="100" height="80" as="geometry" />
        </mxCell>
        <mxCell id="aAubT2UVhq9OH1OdG5Ef-24" style="edgeStyle=orthogonalEdgeStyle;shape=connector;rounded=0;orthogonalLoop=1;jettySize=auto;html=1;exitX=0;exitY=0.25;exitDx=0;exitDy=0;exitPerimeter=0;strokeColor=default;align=center;verticalAlign=middle;fontFamily=Helvetica;fontSize=11;fontColor=default;labelBackgroundColor=default;endArrow=none;endFill=0;" edge="1" parent="1" source="aAubT2UVhq9OH1OdG5Ef-4" target="aAubT2UVhq9OH1OdG5Ef-23">
          <mxGeometry relative="1" as="geometry">
            <Array as="points">
              <mxPoint x="290" y="350" />
              <mxPoint x="290" y="350" />
            </Array>
          </mxGeometry>
        </mxCell>
        <mxCell id="aAubT2UVhq9OH1OdG5Ef-27" style="edgeStyle=orthogonalEdgeStyle;shape=connector;rounded=0;orthogonalLoop=1;jettySize=auto;html=1;exitX=0;exitY=0.5;exitDx=0;exitDy=0;exitPerimeter=0;strokeColor=default;align=center;verticalAlign=middle;fontFamily=Helvetica;fontSize=11;fontColor=default;labelBackgroundColor=default;endArrow=none;endFill=0;" edge="1" parent="1" source="aAubT2UVhq9OH1OdG5Ef-4" target="aAubT2UVhq9OH1OdG5Ef-26">
          <mxGeometry relative="1" as="geometry">
            <Array as="points">
              <mxPoint x="290" y="420" />
              <mxPoint x="290" y="420" />
            </Array>
          </mxGeometry>
        </mxCell>
        <mxCell id="aAubT2UVhq9OH1OdG5Ef-30" style="edgeStyle=orthogonalEdgeStyle;shape=connector;rounded=0;orthogonalLoop=1;jettySize=auto;html=1;exitX=1;exitY=0.25;exitDx=0;exitDy=0;exitPerimeter=0;strokeColor=default;align=center;verticalAlign=middle;fontFamily=Helvetica;fontSize=11;fontColor=default;labelBackgroundColor=default;endArrow=none;endFill=0;" edge="1" parent="1" source="aAubT2UVhq9OH1OdG5Ef-4" target="aAubT2UVhq9OH1OdG5Ef-28">
          <mxGeometry relative="1" as="geometry">
            <Array as="points">
              <mxPoint x="390" y="350" />
              <mxPoint x="390" y="350" />
            </Array>
          </mxGeometry>
        </mxCell>
        <mxCell id="aAubT2UVhq9OH1OdG5Ef-4" value="" style="verticalLabelPosition=bottom;shadow=0;dashed=0;align=center;html=1;verticalAlign=top;shape=stencil(tZZNc4IwEIZ/Dcd2kPjB1VI51JPTS68BV80YEiakav99A4szRhukQWe87Lu6z5tlNxiQpNrREoIopFUJuQ7IexBFB6oYzbiRI5PZoRiHGApaACofSxOmnJUvKZclZiut5B6ObK3bnzGxA8U0Zo+ojcKmFlkE4dyo9YckuRTCOGBSVFbmIm+KUya0bQIrlwZSgAaFauv1ZEU/bfQaTVAIovQ/qIUHyo+09CDN/FCrHqjRY/q3ErD1oLkORhKjuKaGJBnN91slv8X6T4+qnvab4W4HdGo7uu51hx8HlSQbqaDDzoZxjrvT0deS1lt1kzinC3kA13y4TNsVOBPgPHa/El0mpsNN9Cthm4iHt6K9sQb1Ih7ejGsbPt2wK4yHP5LuEs1WOAbXvH3ujbyGU72mlLOtQFwOor44zm8bFOcYHy6+l0mtZWHv8cR+iHeusZ7sNx/2+DHsLx/29DHsz17s2VN6nviwXeduRvTmfm5U/HfUCL8=);" vertex="1" parent="1">
          <mxGeometry x="290" y="350" width="100" height="80" as="geometry" />
        </mxCell>
        <mxCell id="aAubT2UVhq9OH1OdG5Ef-31" style="edgeStyle=orthogonalEdgeStyle;shape=connector;rounded=0;orthogonalLoop=1;jettySize=auto;html=1;exitX=0;exitY=0.25;exitDx=0;exitDy=0;exitPerimeter=0;strokeColor=default;align=center;verticalAlign=middle;fontFamily=Helvetica;fontSize=11;fontColor=default;labelBackgroundColor=default;endArrow=none;endFill=0;" edge="1" parent="1" source="aAubT2UVhq9OH1OdG5Ef-5" target="aAubT2UVhq9OH1OdG5Ef-29">
          <mxGeometry relative="1" as="geometry">
            <Array as="points">
              <mxPoint x="420" y="350" />
              <mxPoint x="420" y="350" />
            </Array>
          </mxGeometry>
        </mxCell>
        <mxCell id="aAubT2UVhq9OH1OdG5Ef-33" style="edgeStyle=orthogonalEdgeStyle;shape=connector;rounded=0;orthogonalLoop=1;jettySize=auto;html=1;exitX=0;exitY=0.5;exitDx=0;exitDy=0;exitPerimeter=0;strokeColor=default;align=center;verticalAlign=middle;fontFamily=Helvetica;fontSize=11;fontColor=default;labelBackgroundColor=default;endArrow=none;endFill=0;" edge="1" parent="1" source="aAubT2UVhq9OH1OdG5Ef-5" target="aAubT2UVhq9OH1OdG5Ef-32">
          <mxGeometry relative="1" as="geometry">
            <Array as="points">
              <mxPoint x="420" y="410" />
              <mxPoint x="420" y="410" />
            </Array>
          </mxGeometry>
        </mxCell>
        <mxCell id="aAubT2UVhq9OH1OdG5Ef-36" style="edgeStyle=orthogonalEdgeStyle;shape=connector;rounded=0;orthogonalLoop=1;jettySize=auto;html=1;exitX=1;exitY=0.25;exitDx=0;exitDy=0;exitPerimeter=0;strokeColor=default;align=center;verticalAlign=middle;fontFamily=Helvetica;fontSize=11;fontColor=default;labelBackgroundColor=default;endArrow=none;endFill=0;" edge="1" parent="1" source="aAubT2UVhq9OH1OdG5Ef-5" target="aAubT2UVhq9OH1OdG5Ef-34">
          <mxGeometry relative="1" as="geometry">
            <Array as="points">
              <mxPoint x="520" y="350" />
              <mxPoint x="520" y="350" />
            </Array>
          </mxGeometry>
        </mxCell>
        <mxCell id="aAubT2UVhq9OH1OdG5Ef-5" value="" style="verticalLabelPosition=bottom;shadow=0;dashed=0;align=center;html=1;verticalAlign=top;shape=stencil(tZZNc4IwEIZ/Dcd2kPjB1VI51JPTS68BV80YEiakav99A4szRhukQWe87Lu6z5tlNxiQpNrREoIopFUJuQ7IexBFB6oYzbiRI5PZoRiHGApaACofSxOmnJUvKZclZiut5B6ObK3bnzGxA8U0Zo+ojcKmFlkE4dyo9YckuRTCOGBSVFbmIm+KUya0bQIrlwZSgAaFauv1ZEU/bfQaTVAIovQ/qIUHyo+09CDN/FCrHqjRY/q3ErD1oLkORhKjuKaGJBnN91slv8X6T4+qnvab4W4HdGo7uu51hx8HlSQbqaDDzoZxjrvT0deS1lt1kzinC3kA13y4TNsVOBPgPHa/El0mpsNN9Cthm4iHt6K9sQb1Ih7ejGsbPt2wK4yHP5LuEs1WOAbXvH3ujbyGU72mlLOtQFwOor44zm8bFOcYHy6+l0mtZWHv8cR+iHeusZ7sNx/2+DHsLx/29DHsz17s2VN6nviwXeduRvTmfm5U/HfUCL8=);" vertex="1" parent="1">
          <mxGeometry x="420" y="350" width="100" height="80" as="geometry" />
        </mxCell>
        <mxCell id="aAubT2UVhq9OH1OdG5Ef-37" style="edgeStyle=orthogonalEdgeStyle;shape=connector;rounded=0;orthogonalLoop=1;jettySize=auto;html=1;exitX=0;exitY=0.25;exitDx=0;exitDy=0;exitPerimeter=0;strokeColor=default;align=center;verticalAlign=middle;fontFamily=Helvetica;fontSize=11;fontColor=default;labelBackgroundColor=default;endArrow=none;endFill=0;" edge="1" parent="1" source="aAubT2UVhq9OH1OdG5Ef-6" target="aAubT2UVhq9OH1OdG5Ef-35">
          <mxGeometry relative="1" as="geometry">
            <Array as="points">
              <mxPoint x="550" y="350" />
              <mxPoint x="550" y="350" />
            </Array>
          </mxGeometry>
        </mxCell>
        <mxCell id="aAubT2UVhq9OH1OdG5Ef-40" style="edgeStyle=orthogonalEdgeStyle;shape=connector;rounded=0;orthogonalLoop=1;jettySize=auto;html=1;exitX=0;exitY=0.5;exitDx=0;exitDy=0;exitPerimeter=0;strokeColor=default;align=center;verticalAlign=middle;fontFamily=Helvetica;fontSize=11;fontColor=default;labelBackgroundColor=default;endArrow=none;endFill=0;" edge="1" parent="1" source="aAubT2UVhq9OH1OdG5Ef-6" target="aAubT2UVhq9OH1OdG5Ef-39">
          <mxGeometry relative="1" as="geometry">
            <Array as="points">
              <mxPoint x="550" y="420" />
              <mxPoint x="550" y="420" />
            </Array>
          </mxGeometry>
        </mxCell>
        <mxCell id="aAubT2UVhq9OH1OdG5Ef-42" style="edgeStyle=orthogonalEdgeStyle;shape=connector;rounded=0;orthogonalLoop=1;jettySize=auto;html=1;exitX=1;exitY=0.25;exitDx=0;exitDy=0;exitPerimeter=0;strokeColor=default;align=center;verticalAlign=middle;fontFamily=Helvetica;fontSize=11;fontColor=default;labelBackgroundColor=default;endArrow=none;endFill=0;" edge="1" parent="1" source="aAubT2UVhq9OH1OdG5Ef-6" target="aAubT2UVhq9OH1OdG5Ef-41">
          <mxGeometry relative="1" as="geometry">
            <Array as="points">
              <mxPoint x="650" y="350" />
              <mxPoint x="650" y="350" />
            </Array>
          </mxGeometry>
        </mxCell>
        <mxCell id="aAubT2UVhq9OH1OdG5Ef-43" style="edgeStyle=orthogonalEdgeStyle;shape=connector;rounded=0;orthogonalLoop=1;jettySize=auto;html=1;exitX=1;exitY=0.75;exitDx=0;exitDy=0;exitPerimeter=0;strokeColor=default;align=center;verticalAlign=middle;fontFamily=Helvetica;fontSize=11;fontColor=default;labelBackgroundColor=default;endArrow=none;endFill=0;" edge="1" parent="1" source="aAubT2UVhq9OH1OdG5Ef-6">
          <mxGeometry relative="1" as="geometry">
            <mxPoint x="689.9999999999998" y="410.11764705882354" as="targetPoint" />
          </mxGeometry>
        </mxCell>
        <mxCell id="aAubT2UVhq9OH1OdG5Ef-44" value="Cout" style="edgeLabel;html=1;align=center;verticalAlign=middle;resizable=0;points=[];fontFamily=Helvetica;fontSize=11;fontColor=default;labelBackgroundColor=default;" vertex="1" connectable="0" parent="aAubT2UVhq9OH1OdG5Ef-43">
          <mxGeometry x="1" y="5" relative="1" as="geometry">
            <mxPoint x="5" y="4" as="offset" />
          </mxGeometry>
        </mxCell>
        <mxCell id="aAubT2UVhq9OH1OdG5Ef-6" value="" style="verticalLabelPosition=bottom;shadow=0;dashed=0;align=center;html=1;verticalAlign=top;shape=stencil(tZZNc4IwEIZ/Dcd2kPjB1VI51JPTS68BV80YEiakav99A4szRhukQWe87Lu6z5tlNxiQpNrREoIopFUJuQ7IexBFB6oYzbiRI5PZoRiHGApaACofSxOmnJUvKZclZiut5B6ObK3bnzGxA8U0Zo+ojcKmFlkE4dyo9YckuRTCOGBSVFbmIm+KUya0bQIrlwZSgAaFauv1ZEU/bfQaTVAIovQ/qIUHyo+09CDN/FCrHqjRY/q3ErD1oLkORhKjuKaGJBnN91slv8X6T4+qnvab4W4HdGo7uu51hx8HlSQbqaDDzoZxjrvT0deS1lt1kzinC3kA13y4TNsVOBPgPHa/El0mpsNN9Cthm4iHt6K9sQb1Ih7ejGsbPt2wK4yHP5LuEs1WOAbXvH3ujbyGU72mlLOtQFwOor44zm8bFOcYHy6+l0mtZWHv8cR+iHeusZ7sNx/2+DHsLx/29DHsz17s2VN6nviwXeduRvTmfm5U/HfUCL8=);" vertex="1" parent="1">
          <mxGeometry x="550" y="350" width="100" height="80" as="geometry" />
        </mxCell>
        <mxCell id="aAubT2UVhq9OH1OdG5Ef-15" style="edgeStyle=orthogonalEdgeStyle;rounded=0;orthogonalLoop=1;jettySize=auto;html=1;exitX=1;exitY=0.75;exitDx=0;exitDy=0;exitPerimeter=0;entryX=0;entryY=0.75;entryDx=0;entryDy=0;entryPerimeter=0;endArrow=none;endFill=0;" edge="1" parent="1" source="aAubT2UVhq9OH1OdG5Ef-3" target="aAubT2UVhq9OH1OdG5Ef-4">
          <mxGeometry relative="1" as="geometry" />
        </mxCell>
        <mxCell id="aAubT2UVhq9OH1OdG5Ef-16" style="edgeStyle=orthogonalEdgeStyle;shape=connector;rounded=0;orthogonalLoop=1;jettySize=auto;html=1;exitX=1;exitY=0.75;exitDx=0;exitDy=0;exitPerimeter=0;entryX=0;entryY=0.75;entryDx=0;entryDy=0;entryPerimeter=0;strokeColor=default;align=center;verticalAlign=middle;fontFamily=Helvetica;fontSize=11;fontColor=default;labelBackgroundColor=default;endArrow=none;endFill=0;" edge="1" parent="1" source="aAubT2UVhq9OH1OdG5Ef-4" target="aAubT2UVhq9OH1OdG5Ef-5">
          <mxGeometry relative="1" as="geometry" />
        </mxCell>
        <mxCell id="aAubT2UVhq9OH1OdG5Ef-17" style="edgeStyle=orthogonalEdgeStyle;shape=connector;rounded=0;orthogonalLoop=1;jettySize=auto;html=1;exitX=1;exitY=0.75;exitDx=0;exitDy=0;exitPerimeter=0;entryX=0;entryY=0.75;entryDx=0;entryDy=0;entryPerimeter=0;strokeColor=default;align=center;verticalAlign=middle;fontFamily=Helvetica;fontSize=11;fontColor=default;labelBackgroundColor=default;endArrow=none;endFill=0;" edge="1" parent="1" source="aAubT2UVhq9OH1OdG5Ef-5" target="aAubT2UVhq9OH1OdG5Ef-6">
          <mxGeometry relative="1" as="geometry" />
        </mxCell>
        <mxCell id="aAubT2UVhq9OH1OdG5Ef-19" value="S0" style="text;html=1;align=center;verticalAlign=middle;resizable=0;points=[];autosize=1;strokeColor=none;fillColor=none;fontFamily=Helvetica;fontSize=11;fontColor=default;labelBackgroundColor=default;" vertex="1" parent="1">
          <mxGeometry x="240" y="300" width="40" height="30" as="geometry" />
        </mxCell>
        <mxCell id="aAubT2UVhq9OH1OdG5Ef-23" value="A1" style="text;html=1;align=center;verticalAlign=middle;resizable=0;points=[];autosize=1;strokeColor=none;fillColor=none;fontFamily=Helvetica;fontSize=11;fontColor=default;labelBackgroundColor=default;" vertex="1" parent="1">
          <mxGeometry x="270" y="300" width="40" height="30" as="geometry" />
        </mxCell>
        <mxCell id="aAubT2UVhq9OH1OdG5Ef-26" value="B1" style="text;html=1;align=center;verticalAlign=middle;resizable=0;points=[];autosize=1;strokeColor=none;fillColor=none;fontFamily=Helvetica;fontSize=11;fontColor=default;labelBackgroundColor=default;" vertex="1" parent="1">
          <mxGeometry x="270" y="438" width="40" height="30" as="geometry" />
        </mxCell>
        <mxCell id="aAubT2UVhq9OH1OdG5Ef-28" value="S1" style="text;html=1;align=center;verticalAlign=middle;resizable=0;points=[];autosize=1;strokeColor=none;fillColor=none;fontFamily=Helvetica;fontSize=11;fontColor=default;labelBackgroundColor=default;" vertex="1" parent="1">
          <mxGeometry x="370" y="300" width="40" height="30" as="geometry" />
        </mxCell>
        <mxCell id="aAubT2UVhq9OH1OdG5Ef-29" value="A1" style="text;html=1;align=center;verticalAlign=middle;resizable=0;points=[];autosize=1;strokeColor=none;fillColor=none;fontFamily=Helvetica;fontSize=11;fontColor=default;labelBackgroundColor=default;" vertex="1" parent="1">
          <mxGeometry x="400" y="300" width="40" height="30" as="geometry" />
        </mxCell>
        <mxCell id="aAubT2UVhq9OH1OdG5Ef-32" value="B2" style="text;html=1;align=center;verticalAlign=middle;resizable=0;points=[];autosize=1;strokeColor=none;fillColor=none;fontFamily=Helvetica;fontSize=11;fontColor=default;labelBackgroundColor=default;" vertex="1" parent="1">
          <mxGeometry x="400" y="438" width="40" height="30" as="geometry" />
        </mxCell>
        <mxCell id="aAubT2UVhq9OH1OdG5Ef-34" value="S2" style="text;html=1;align=center;verticalAlign=middle;resizable=0;points=[];autosize=1;strokeColor=none;fillColor=none;fontFamily=Helvetica;fontSize=11;fontColor=default;labelBackgroundColor=default;" vertex="1" parent="1">
          <mxGeometry x="500" y="300" width="40" height="30" as="geometry" />
        </mxCell>
        <mxCell id="aAubT2UVhq9OH1OdG5Ef-35" value="A2" style="text;html=1;align=center;verticalAlign=middle;resizable=0;points=[];autosize=1;strokeColor=none;fillColor=none;fontFamily=Helvetica;fontSize=11;fontColor=default;labelBackgroundColor=default;" vertex="1" parent="1">
          <mxGeometry x="530" y="300" width="40" height="30" as="geometry" />
        </mxCell>
        <mxCell id="aAubT2UVhq9OH1OdG5Ef-39" value="B3" style="text;html=1;align=center;verticalAlign=middle;resizable=0;points=[];autosize=1;strokeColor=none;fillColor=none;fontFamily=Helvetica;fontSize=11;fontColor=default;labelBackgroundColor=default;" vertex="1" parent="1">
          <mxGeometry x="530" y="438" width="40" height="30" as="geometry" />
        </mxCell>
        <mxCell id="aAubT2UVhq9OH1OdG5Ef-41" value="S3" style="text;html=1;align=center;verticalAlign=middle;resizable=0;points=[];autosize=1;strokeColor=none;fillColor=none;fontFamily=Helvetica;fontSize=11;fontColor=default;labelBackgroundColor=default;" vertex="1" parent="1">
          <mxGeometry x="630" y="300" width="40" height="30" as="geometry" />
        </mxCell>
        <mxCell id="aAubT2UVhq9OH1OdG5Ef-46" value="A0" style="text;html=1;align=center;verticalAlign=middle;resizable=0;points=[];autosize=1;strokeColor=none;fillColor=none;fontFamily=Helvetica;fontSize=11;fontColor=default;labelBackgroundColor=default;" vertex="1" parent="1">
          <mxGeometry x="140" y="300" width="40" height="30" as="geometry" />
        </mxCell>
        <mxCell id="aAubT2UVhq9OH1OdG5Ef-49" value="B0" style="text;html=1;align=center;verticalAlign=middle;resizable=0;points=[];autosize=1;strokeColor=none;fillColor=none;fontFamily=Helvetica;fontSize=11;fontColor=default;labelBackgroundColor=default;" vertex="1" parent="1">
          <mxGeometry x="140" y="438" width="40" height="30" as="geometry" />
        </mxCell>
      </root>
    </mxGraphModel>
  </diagram>
</mxfile>
